# xmcd
#
# Track frame offsets:
#	150
#	20401
#	41563
#	66426
#	85631
#	120689
#	151035
#	174282
#	193605
#	218828
#	238752
#	266369
#	285208
#	309704
#
# Disc length: 4420 seconds
#
# Revision: 0
# Processed by: cddbd v1.5.1PL0 Copyright (c) Steve Scherf et al.
# Submitted via: EasyCDDAExtractor 8.0.1.1
#
DISCID=b411420e
DTITLE=Jonny Lang - NOTHING BUT THE BLUES (LIVE ILLINOIS 1997+LAS VEGAS 1999)
DYEAR=1999
DGENRE=Blues
TTITLE0=GOOD MORNING LITTLE SCHOOL GIRL
TTITLE1=HIT THE GROUND RUNNING
TTITLE2=RACK EM UP
TTITLE3=LIE TO ME
TTITLE4=THERE'S GOTTA BE A CHANGE
TTITLE5=A QUITTER NEVER WINS
TTITLE6=STILL RAINING
TTITLE7=THE LEVEE
TTITLE8=WALKING AWAY
TTITLE9=RIGHT BACK
TTITLE10=SECOND GUESSING
TTITLE11=WANDER THIS WORLD
TTITLE12=BREAKING ME
TTITLE13=STILL RAINING
EXTD=ONNY LANG LIVE - NOTHING BUT THE BLUES - 1999 - \nRARE LIVE SHOW RECORDED
EXTD=IN LAKEFOREST ILLINOIS- \nAPRIL 1997 AND LAS VEGAS, NEVADA- JUNE 1999 - 
EXTD=RADIO BROADCAST
EXTT0=
EXTT1=
EXTT2=
EXTT3=
EXTT4=
EXTT5=
EXTT6=
EXTT7=
EXTT8=
EXTT9=
EXTT10=
EXTT11=
EXTT12=
EXTT13=
PLAYORDER=
